<svg xmlns="http://www.w3.org/2000/svg" viewBox="0 0 100 100">
  <!-- Spaceship body -->
  <ellipse cx="50" cy="55" rx="30" ry="20" fill="#4a5568"/>
  <ellipse cx="50" cy="55" rx="25" ry="15" fill="#718096"/>
  
  <!-- Cockpit dome -->
  <ellipse cx="50" cy="48" rx="15" ry="12" fill="#63b3ed"/>
  <ellipse cx="50" cy="46" rx="10" ry="8" fill="#90cdf4"/>
  
  <!-- Rocket flames -->
  <path d="M30 70 Q25 85 30 90 Q35 82 35 70" fill="#f6ad55"/>
  <path d="M45 72 Q40 90 50 95 Q60 90 55 72" fill="#fc8181"/>
  <path d="M45 72 Q45 85 50 90 Q55 85 55 72" fill="#fbd38d"/>
  <path d="M65 70 Q70 85 70 90 Q75 82 70 70" fill="#f6ad55"/>
  
  <!-- Bug/wrench symbol on ship -->
  <circle cx="50" cy="55" r="8" fill="#2d3748"/>
  <path d="M46 51 L54 59 M54 51 L46 59" stroke="#48bb78" stroke-width="2.5" stroke-linecap="round"/>
  
  <!-- Stars -->
  <circle cx="15" cy="20" r="2" fill="#faf089"/>
  <circle cx="85" cy="15" r="1.5" fill="#faf089"/>
  <circle cx="80" cy="35" r="2" fill="#faf089"/>
  <circle cx="20" cy="80" r="1.5" fill="#faf089"/>
  <circle cx="10" cy="50" r="1" fill="#faf089"/>
  <circle cx="90" cy="70" r="1.5" fill="#faf089"/>
</svg>
